HIERARCHY
ROOT Hips
{
	OFFSET 0.000000 0.000000 0.000000
	CHANNELS 6 Xposition Yposition Zposition Zrotation Yrotation Xrotation 
	JOINT LHipJoint
	{
		OFFSET 0.000000 0.000000 0.000000
		CHANNELS 3 Zrotation Yrotation Xrotation
		JOINT LeftUpLeg
		{
			OFFSET 1.363060 -1.794630 0.839290
			CHANNELS 3 Zrotation Yrotation Xrotation
			JOINT LeftLeg
			{
				OFFSET 2.448110 -6.726130 0.000000
				CHANNELS 3 Zrotation Yrotation Xrotation
				JOINT LeftFoot
				{
					OFFSET 2.562200 -7.039590 0.000000
					CHANNELS 3 Zrotation Yrotation Xrotation
					JOINT LeftToeBase
					{
						OFFSET 0.157640 -0.433110 2.322550
						CHANNELS 3 Zrotation Yrotation Xrotation
						End Site
						{
							OFFSET 0.000000 0.000000 0.000000
						}
					}
				}
			}
		}
	}
	JOINT RHipJoint
	{
		OFFSET 0.000000 0.000000 0.000000
		CHANNELS 3 Zrotation Yrotation Xrotation
		JOINT RightUpLeg
		{
			OFFSET -1.305520 -1.794630 0.839290
			CHANNELS 3 Zrotation Yrotation Xrotation
			JOINT RightLeg
			{
				OFFSET -2.542530 -6.985550 0.000000
				CHANNELS 3 Zrotation Yrotation Xrotation
				JOINT RightFoot
				{
					OFFSET -2.568260 -7.056230 0.000000
					CHANNELS 3 Zrotation Yrotation Xrotation
					JOINT RightToeBase
					{
						OFFSET -0.164730 -0.452590 2.363150
						CHANNELS 3 Zrotation Yrotation Xrotation
						End Site
						{
							OFFSET 0.000000 0.000000 0.000000
						}
					}
				}
			}
		}
	}
	JOINT LowerBack
	{
		OFFSET 0.000000 0.000000 0.000000
		CHANNELS 3 Zrotation Yrotation Xrotation
		JOINT Spine
		{
			OFFSET 0.028270 2.035590 -0.193380
			CHANNELS 3 Zrotation Yrotation Xrotation
			JOINT Spine1
			{
				OFFSET 0.056720 2.048850 -0.042750
				CHANNELS 3 Zrotation Yrotation Xrotation
				JOINT Neck
				{
					OFFSET 0.000000 0.000000 0.000000
					CHANNELS 3 Zrotation Yrotation Xrotation
					JOINT Neck1
					{
						OFFSET -0.054170 1.746240 0.172020
						CHANNELS 3 Zrotation Yrotation Xrotation
						JOINT Head
						{
							OFFSET 0.104070 1.761360 -0.123970
							CHANNELS 3 Zrotation Yrotation Xrotation
							End Site
							{
								OFFSET 0.000000 0.000000 0.000000
							}
						}
					}
				}
				JOINT LeftShoulder
				{
					OFFSET 0.000000 0.000000 0.000000
					CHANNELS 3 Zrotation Yrotation Xrotation
					JOINT LeftArm
					{
						OFFSET 3.362410 1.200890 -0.311210
						CHANNELS 3 Zrotation Yrotation Xrotation
						JOINT LeftForeArm
						{
							OFFSET 4.983000 -0.000000 -0.000000
							CHANNELS 3 Zrotation Yrotation Xrotation
							JOINT LeftHand
							{
								OFFSET 3.483560 -0.000000 -0.000000
								CHANNELS 3 Zrotation Yrotation Xrotation
								JOINT LeftFingerBase
								{
									OFFSET 0.000000 0.000000 0.000000
									CHANNELS 3 Zrotation Yrotation Xrotation
									JOINT LeftHandIndex1
									{
										OFFSET 0.715260 -0.000000 -0.000000
										CHANNELS 3 Zrotation Yrotation Xrotation
										End Site
										{
											OFFSET 0.000000 0.000000 0.000000
										}
									}
								}
								JOINT LThumb
								{
									OFFSET 0.000000 0.000000 0.000000
									CHANNELS 3 Zrotation Yrotation Xrotation
									End Site
									{
										OFFSET 0.000000 0.000000 0.000000
									}
								}
							}
						}
					}
				}
				JOINT RightShoulder
				{
					OFFSET 0.000000 0.000000 0.000000
					CHANNELS 3 Zrotation Yrotation Xrotation
					JOINT RightArm
					{
						OFFSET -3.136600 1.374050 -0.404650
						CHANNELS 3 Zrotation Yrotation Xrotation
						JOINT RightForeArm
						{
							OFFSET -5.241900 -0.000000 -0.000000
							CHANNELS 3 Zrotation Yrotation Xrotation
							JOINT RightHand
							{
								OFFSET -3.444170 -0.000000 -0.000000
								CHANNELS 3 Zrotation Yrotation Xrotation
								JOINT RightFingerBase
								{
									OFFSET 0.000000 0.000000 0.000000
									CHANNELS 3 Zrotation Yrotation Xrotation
									JOINT RightHandIndex1
									{
										OFFSET -0.622530 -0.000000 -0.000000
										CHANNELS 3 Zrotation Yrotation Xrotation
										End Site
										{
											OFFSET 0.000000 0.000000 0.000000
										}
									}
								}
								JOINT RThumb
								{
									OFFSET 0.000000 0.000000 0.000000
									CHANNELS 3 Zrotation Yrotation Xrotation
									End Site
									{
										OFFSET 0.000000 0.000000 0.000000
									}
								}
							}
						}
					}
				}
			}
		}
	}
}
MOTION
Frames: 9
Frame Time: 0.008333
-0.598200 17.250204 0.700480 5.404325 -83.042769 3.165979 -9.944483 1.113432 1.866747 -12.348799 -3.315974 -14.378844 -2.203234 -0.493089 10.062876 1.010479 5.686198 -5.691322 0.242300 -0.000000 -29.825500 10.686025 -0.186351 -1.388931 3.419049 -5.647639 -31.053078 -1.141554 -3.728563 57.567169 -2.183777 -10.989270 11.889062 -3.475301 -0.000000 -76.628400 -7.304771 -1.465824 0.057262 -2.503735 -1.094470 -2.886425 -7.808091 -1.160953 0.423748 9.827287 -4.211676 -1.977918 -4.388059 -0.381462 1.378940 0.000000 0.000000 0.000000 -1.483728 -0.255104 1.182138 -62.335846 -8.489853 6.290027 -4.016833 -15.025640 0.004745 3.499442 -2.845387 -0.089654 -0.102288 0.023275 -0.000000 0.000000 0.000000 0.000000 0.000000 0.000000 0.000000 18.332743 -3.876057 -0.123832 75.579897 2.927270 -8.290711 3.029764 16.523871 0.012561 -1.600409 10.392709 -0.153111 0.076565 -0.080598 0.000000 0.000000 0.000000 0.000000 0.000000 0.000000 0.000000 
-0.589449 17.255169 0.720274 3.661972 -82.861375 5.080049 -9.995327 1.023067 1.834297 -12.162246 -3.282263 -14.595684 -2.180036 -0.516727 10.076931 0.994957 5.602467 -5.659068 0.242900 0.000000 -29.873700 10.689745 -0.055607 -1.319343 3.557890 -5.285739 -33.363035 -1.343699 -3.899676 60.705502 -2.236262 -10.845397 14.255803 -3.712700 -0.000000 -76.271601 -7.234036 -1.554428 0.059730 -2.489112 -1.186864 -2.887749 -7.829236 -1.254487 0.394778 9.908335 -4.183382 -2.004615 -4.369750 -0.379795 1.373301 0.000000 0.000000 0.000000 -1.452921 -0.442154 1.235276 -62.151339 -8.606772 6.620012 -4.009344 -15.496589 0.004697 3.444943 -2.836346 -0.088138 -0.103285 0.025515 -0.000000 0.000000 0.000000 0.000000 0.000000 0.000000 0.000000 18.324105 -3.869853 -0.092012 75.537294 3.082185 -8.265006 3.014163 16.631891 0.012411 -1.582597 10.420786 -0.151812 0.075567 -0.081615 0.000000 0.000000 0.000000 0.000000 0.000000 0.000000 0.000000 
-0.580101 17.261008 0.739627 1.808819 -82.658996 7.113850 -10.039435 0.929091 1.807024 -11.948325 -3.289815 -14.800315 -2.152129 -0.543340 10.054238 0.983785 5.553170 -5.610261 0.247400 0.000001 -29.911100 10.685857 0.079004 -1.253943 3.721021 -4.912128 -35.664762 -1.527941 -4.069965 63.746505 -2.280941 -10.610879 16.365166 -3.863100 0.000000 -75.870801 -7.132021 -1.646731 0.064887 -2.468356 -1.284783 -2.887765 -7.852737 -1.353340 0.367612 9.994945 -4.157686 -2.038021 -4.351918 -0.378066 1.365874 0.000000 0.000000 0.000000 -1.440368 -0.620560 1.291852 -61.944153 -8.762300 6.962235 -4.001250 -15.938943 0.004661 3.416943 -2.844332 -0.087723 -0.104287 0.027931 -0.000000 0.000000 0.000000 0.000000 0.000000 0.000000 0.000000 18.322730 -3.868243 -0.059748 75.480180 3.249561 -8.208604 2.997673 16.748410 0.012258 -1.575779 10.457036 -0.151613 0.074575 -0.082663 0.000000 0.000000 0.000000 0.000000 0.000000 0.000000 0.000000 
-0.570718 17.267953 0.759134 -0.215474 -82.422703 9.342900 -10.076518 0.833052 1.794633 -11.696241 -3.345781 -15.036994 -2.118946 -0.572104 10.027474 0.976146 5.528147 -5.553838 0.254501 0.000000 -29.933700 10.676321 0.211557 -1.187750 3.921416 -4.538840 -37.989274 -1.700886 -4.244907 66.698473 -2.310469 -10.276962 18.138658 -3.912600 0.000000 -75.327999 -6.981398 -1.742526 0.051525 -2.437988 -1.389191 -2.892757 -7.877943 -1.459138 0.334708 10.080866 -4.115108 -2.065077 -4.335175 -0.376489 1.360597 0.000000 0.000000 0.000000 -1.450948 -0.827095 1.353144 -61.719788 -8.904543 7.277766 -3.991160 -16.371896 0.004622 3.415288 -2.863216 -0.088307 -0.105142 0.030448 -0.000000 0.000000 0.000000 0.000000 0.000000 0.000000 0.000000 18.318721 -3.853150 -0.024887 75.410928 3.393251 -8.167352 2.982022 16.885782 0.012101 -1.562917 10.493376 -0.150914 0.073527 -0.083719 0.000000 0.000000 0.000000 0.000000 0.000000 0.000000 0.000000 
-0.561045 17.276050 0.778911 -2.369954 -82.165150 11.715772 -10.105660 0.736108 1.791312 -11.406840 -3.447298 -15.275056 -2.079987 -0.602672 9.974287 0.973390 5.539706 -5.482160 0.265600 -0.000000 -29.944799 10.663991 0.343308 -1.126673 4.152539 -4.162262 -40.318171 -1.871390 -4.427363 69.559642 -2.322892 -9.865107 19.528171 -3.866200 0.000001 -74.945100 -6.781853 -1.835804 0.033414 -2.397893 -1.494115 -2.897787 -7.903512 -1.565236 0.306339 10.162840 -4.076185 -2.097613 -4.318138 -0.374813 1.353977 0.000000 0.000000 0.000000 -1.485570 -1.015970 1.415652 -61.488417 -9.106802 7.582356 -3.981073 -16.740553 0.004576 3.442325 -2.896739 -0.090192 -0.106005 0.033230 -0.000000 0.000000 0.000000 0.000000 0.000000 0.000000 0.000000 18.308280 -3.843150 0.009594 75.326737 3.547152 -8.101473 2.967796 17.023309 0.011956 -1.557241 10.532414 -0.150816 0.072593 -0.084778 0.000000 0.000000 0.000000 0.000000 0.000000 0.000000 0.000000 
-0.551049 17.285336 0.799275 -4.651574 -81.887092 14.230710 -10.126912 0.640122 1.799129 -11.077421 -3.592217 -15.525282 -2.035193 -0.634308 9.901105 0.975378 5.585852 -5.395620 0.280900 -0.000000 -29.948600 10.650699 0.474407 -1.069242 4.415175 -3.784792 -42.663511 -2.047932 -4.618924 72.338313 -2.315379 -9.381894 20.496024 -3.727601 0.000000 -74.632800 -6.527774 -1.922992 0.004317 -2.347040 -1.596476 -2.905792 -7.928788 -1.668933 0.276970 10.236509 -4.027659 -2.127377 -4.300853 -0.373139 1.348387 0.000000 0.000000 0.000000 -1.543629 -1.209027 1.479944 -61.258139 -9.340582 7.847909 -3.970529 -17.053963 0.004507 3.493433 -2.938029 -0.092878 -0.106797 0.036246 -0.000000 0.000000 0.000000 0.000000 0.000000 0.000000 0.000000 18.283700 -3.823513 0.045842 75.230710 3.691100 -8.042646 2.955961 17.167466 0.011827 -1.546503 10.568234 -0.150317 0.071723 -0.085856 0.000000 0.000000 0.000000 0.000000 0.000000 0.000000 0.000000 
-0.540672 17.295833 0.820325 -7.023645 -81.596867 16.848518 -10.140997 0.546690 1.814732 -10.710727 -3.770992 -15.779654 -1.985030 -0.666340 9.801264 0.981977 5.666496 -5.290753 0.300900 0.000000 -29.946900 10.637040 0.607867 -1.015890 4.702774 -3.401600 -45.022882 -2.237077 -4.818488 75.033723 -2.288811 -8.849239 21.044425 -3.514000 0.000000 -74.541300 -6.220915 -1.999837 -0.031572 -2.285717 -1.691997 -2.914772 -7.952625 -1.765632 0.252466 10.299474 -3.983926 -2.161303 -4.282573 -0.371337 1.341863 0.000000 0.000000 0.000000 -1.624493 -1.383729 1.543465 -61.037910 -9.640105 8.079028 -3.960678 -17.288146 0.004412 3.563939 -2.985224 -0.096365 -0.107592 0.039559 -0.000000 0.000000 0.000000 0.000000 0.000000 0.000000 0.000000 18.242718 -3.807086 0.082602 75.119718 3.844880 -7.959942 2.947045 17.306066 0.011722 -1.539777 10.600545 -0.150117 0.071043 -0.086943 0.000000 0.000000 0.000000 0.000000 0.000000 0.000000 0.000000 
-0.530582 17.307443 0.842768 -9.567190 -81.280904 19.667755 -10.151319 0.457937 1.843586 -10.290980 -3.958732 -16.097697 -1.930453 -0.696869 9.722787 0.988512 5.741074 -5.184869 0.321500 -0.000000 -29.950100 10.621255 0.742538 -0.956688 5.034702 -3.012306 -47.430425 -2.442836 -5.024105 77.648856 -2.243294 -8.279339 21.186369 -3.241700 0.000000 -74.465000 -5.838654 -2.065571 -0.096865 -2.209362 -1.781657 -2.931263 -7.974491 -1.856942 0.226258 10.345124 -3.920827 -2.188333 -4.263270 -0.369552 1.337876 0.000000 0.000000 0.000000 -1.734236 -1.561946 1.607807 -60.834423 -9.965474 8.262357 -3.950205 -17.463312 0.004275 3.649146 -3.032271 -0.100254 -0.108283 0.043121 -0.000000 0.000000 0.000000 0.000000 0.000000 0.000000 0.000000 18.172608 -3.769369 0.121370 74.996531 3.970135 -7.900256 2.942893 17.456549 0.011648 -1.518330 10.622453 -0.148318 0.070485 -0.088031 0.000000 0.000000 0.000000 0.000000 0.000000 0.000000 0.000000 
-0.519795 17.320075 0.866100 -12.143531 -80.965251 22.526662 -10.158532 0.374410 1.874703 -9.839219 -4.155107 -16.414194 -1.871767 -0.726242 9.612240 0.998211 5.840058 -5.057623 0.346900 -0.000000 -29.961700 10.602475 0.886378 -0.899675 5.379007 -2.607745 -49.853313 -2.667108 -5.232637 80.179101 -2.181746 -7.690782 20.966106 -2.931700 -0.000000 -74.523700 -5.408705 -2.113856 -0.165274 -2.123603 -1.857375 -2.949230 -7.993769 -1.934292 0.202156 10.376603 -3.856263 -2.217005 -4.242403 -0.367622 1.333602 0.000000 0.000000 0.000000 -1.862443 -1.725884 1.670917 -60.653935 -10.350257 8.396869 -3.940723 -17.562499 0.004094 3.740266 -3.076517 -0.104344 -0.108960 0.046984 -0.000000 0.000000 0.000000 0.000000 0.000000 0.000000 0.000000 18.079705 -3.724009 0.162759 74.859237 4.100473 -7.825075 2.942226 17.602542 0.011601 -1.494999 10.636011 -0.146318 0.070114 -0.089170 0.000000 0.000000 0.000000 0.000000 0.000000 0.000000 0.000000 
